<?xml version="1.0" encoding="UTF-8" standalone="no"?><!DOCTYPE svg PUBLIC "-//W3C//DTD SVG 1.1//EN" "http://www.w3.org/Graphics/SVG/1.1/DTD/svg11.dtd"><svg width="12px" height="17px" viewBox="0 0 12 17" version="1.1" xmlns="http://www.w3.org/2000/svg" xmlns:xlink="http://www.w3.org/1999/xlink" xml:space="preserve" xmlns:serif="http://www.serif.com/" style="fill-rule:evenodd;clip-rule:evenodd;stroke-linejoin:round;stroke-miterlimit:1.41421;"><g id="Previous"><path id="_-" serif:id="|" d="M10,16.5c0,0.276 0.224,0.5 0.5,0.5l1,0c0.276,0 0.5,-0.224 0.5,-0.5l0,-16c0,-0.276 -0.224,-0.5 -0.5,-0.5l-1,0c-0.276,0 -0.5,0.224 -0.5,0.5l0,16Z" style="fill:#472f91;"/><path id="_-1" serif:id="&lt;" d="M0,0.982c0,-0.567 0.291,-0.79 0.649,-0.5l9.081,7.347c0.361,0.292 0.359,0.761 0,1.051l-9.081,7.347c-0.361,0.292 -0.649,0.066 -0.649,-0.5l0,-14.745Z" style="fill:#472f91;"/></g></svg>