<?xml version="1.0" encoding="UTF-8"?>
<svg width="12px" height="21px" viewBox="0 0 12 21" version="1.1" xmlns="http://www.w3.org/2000/svg" xmlns:xlink="http://www.w3.org/1999/xlink">
    <!-- Generator: Sketch 57.1 (83088) - https://sketch.com -->
    <title>Pause</title>
    <desc>Created with Sketch.</desc>
    <g id="Main" stroke="none" stroke-width="1" fill="none" fill-rule="evenodd">
        <g id="Music-Player" transform="translate(-252.000000, -238.000000)" fill="#0b2e59">
            <g id="Song-Info" transform="translate(192.000000, 78.000000)">
                <g id="Playback-Controls" transform="translate(6.000000, 160.000000)">
                    <g id="Pause" transform="translate(54.000000, 0.000000)">
                        <path d="M4.05187613,0 C4.33082737,0 4.55696203,0.221630886 4.55696203,0.498391226 L4.55696203,20.5016088 C4.55696203,20.7768626 4.33717027,21 4.05187613,21 L0.505085897,21 C0.226134659,21 0,20.7783691 0,20.5016088 L0,0.498391226 C0,0.223137352 0.21979175,0 0.505085897,0 L4.05187613,0 Z M11.4949141,0 C11.7738653,0 12,0.221630886 12,0.498391226 L12,20.5016088 C12,20.7768626 11.7802082,21 11.4949141,21 L7.94812387,21 C7.66917263,21 7.44303797,20.7783691 7.44303797,20.5016088 L7.44303797,0.498391226 C7.44303797,0.223137352 7.66282973,0 7.94812387,0 L11.4949141,0 Z"></path>
                    </g>
                </g>
            </g>
        </g>
    </g>
</svg>